<?xml version="1.0" encoding="UTF-8" standalone="no"?>
<!-- Created with Inkscape (http://www.inkscape.org/) -->
<svg
   xmlns:svg="http://www.w3.org/2000/svg"
   xmlns="http://www.w3.org/2000/svg"
   version="1.0"
   width="405.65607"
   height="232.71819"
   id="svg2"
   xml:space="preserve"><defs
     id="defs5" /><path
     d="M 245.37661,173.11121 C 245.73809,173.47269 245.73809,174.19564 245.73809,175.28008 C 245.37661,177.08746 244.65366,179.61783 243.56923,182.87113 L 232.72487,209.982 C 231.64043,212.51236 231.27896,214.68123 231.64043,216.48863 C 232.00191,218.29601 232.72487,219.74193 234.17078,220.82636 C 235.25522,221.54931 236.33965,221.91079 238.14705,222.27228 L 242.48479,222.27228 C 243.9307,221.91079 245.37661,221.18784 246.46106,220.46488 C 247.54548,219.74193 248.62992,218.65749 248.99139,217.57305 C 249.71436,216.48863 249.71436,215.40419 249.35288,215.04271 L 247.54548,216.12714 L 245.01514,217.57305 C 242.48479,218.65749 241.03887,218.65749 239.95444,217.93454 L 238.87,216.8501 C 238.87,216.48863 238.87,215.40419 239.23148,214.31975 C 239.59296,212.87383 241.03887,209.62053 243.20774,204.55984 L 250.07583,189.73921 C 252.24471,183.95556 253.32913,180.34078 253.32913,178.53339 C 252.96766,175.64155 250.43731,173.83416 245.37661,173.11121 z M 253.32913,205.28279 L 256.22097,200.22209 L 260.92018,195.88435 L 266.34236,192.99253 C 268.51123,192.26956 270.68009,191.90809 272.48749,191.90809 C 275.74079,191.54661 278.27114,191.90809 280.07854,192.99253 C 281.52446,193.71547 282.24742,194.43844 281.88593,195.16139 C 278.63262,194.43844 275.74079,194.43844 272.48749,195.52287 C 269.59567,196.6073 267.06532,198.4147 264.89644,200.58358 C 263.08906,202.39096 262.00462,204.19835 261.28167,206.00575 C 260.19723,207.81314 259.83576,209.62053 259.83576,211.42791 C 259.47427,212.87383 259.83576,214.31975 260.19723,215.40419 C 260.55871,216.8501 261.28167,217.57305 262.36609,217.93454 C 263.45053,218.65749 264.89644,218.29601 266.70383,217.21157 C 268.51123,216.12714 270.31863,214.68123 272.12602,212.15088 L 277.18671,205.64426 L 280.44002,200.22209 C 282.24742,197.33026 282.97037,195.16139 282.97037,193.71547 L 282.97037,192.99253 L 282.60888,192.26956 L 283.33184,192.26956 C 287.66958,192.99253 289.83846,194.07696 290.19993,195.52287 C 290.56141,195.88435 290.19993,197.33026 289.47698,199.13765 L 287.30811,205.28279 C 286.22367,207.81314 285.50072,210.34349 285.13924,212.15088 C 284.77776,214.68123 284.41628,216.48863 284.77776,217.57305 C 285.13924,219.01896 285.86219,219.38045 287.30811,218.65749 C 288.39254,218.29601 289.83846,217.93454 291.28437,216.8501 C 292.02541,221.94695 282.24138,225.31471 278.27114,219.74193 C 277.90967,218.65749 277.54819,216.8501 277.54819,214.31975 C 275.37932,216.8501 273.21046,219.01896 271.04158,220.82636 C 268.14976,222.63375 265.25792,223.71819 262.00462,223.71819 C 260.19723,223.71819 258.75131,223.3567 256.94393,222.27228 C 255.49802,221.18784 254.41357,220.1034 253.32913,218.29601 L 251.52175,212.51236 C 251.52175,209.982 252.24471,207.81314 253.32913,205.28279 z M 231.64043,200.58358 C 231.27896,198.77618 230.556,196.96879 229.47156,195.52287 C 228.38713,194.07696 226.94121,192.99253 225.13382,192.26956 C 223.32643,191.54661 221.15756,191.18514 218.62721,191.18514 L 211.75912,192.26956 L 204.89103,195.52287 C 203.08364,196.96879 201.27625,198.77618 199.83033,200.58358 L 196.57703,206.7287 C 195.85407,208.89758 195.85407,211.06644 196.21555,212.87383 C 196.57703,214.68123 197.29999,216.12714 198.38442,217.57305 C 199.46886,219.38045 200.91477,220.46488 202.72216,221.18784 C 204.52955,221.91079 206.69842,222.27228 209.22877,222.27228 C 211.39764,222.27228 213.56651,221.91079 216.09686,221.18784 C 218.62721,220.46488 220.79608,219.38045 222.60348,217.57305 C 224.77235,216.12714 226.57974,214.68123 228.02565,212.87383 C 229.47156,211.06644 230.556,208.89758 231.27896,206.7287 C 232.00191,204.55984 232.00191,202.39096 231.64043,200.58358 z M 223.68791,197.69174 L 224.04939,201.668 C 223.68791,203.11393 223.32643,204.92131 222.60348,206.7287 C 220.79608,210.34349 218.98869,213.23531 216.45834,215.76566 C 213.92799,218.29601 211.75912,219.38045 209.22877,219.38045 C 208.14434,219.38045 207.0599,219.01896 205.97547,218.29601 C 205.25251,217.93454 204.52955,216.8501 204.16808,215.76566 L 203.8066,211.7894 C 204.16808,210.34349 204.52955,208.53609 205.25251,206.7287 C 206.69842,203.11393 208.8673,200.22209 211.39764,198.05321 L 215.01243,195.16139 L 218.62721,194.07696 C 219.71165,194.07696 220.79608,194.43844 221.88052,195.16139 C 222.60348,195.52287 223.32643,196.6073 223.68791,197.69174 z M 55.238972,212.15088 C 54.877495,213.95828 55.238972,215.40419 55.961931,216.48863 C 56.684887,217.93454 57.769321,219.01896 59.215236,220.1034 C 61.022629,221.18784 62.83002,221.91079 65.360369,222.27228 L 73.312894,221.91079 C 75.843243,221.18784 78.373591,220.1034 80.180982,218.65749 C 82.349854,216.8501 83.795767,215.04271 84.880202,212.51236 C 85.24168,211.7894 84.880202,211.06644 84.518724,210.70496 L 81.265419,213.23531 L 75.843243,216.48863 C 74.03585,217.57305 72.228457,218.29601 70.421066,218.65749 C 68.252196,219.01896 66.806282,219.01896 65.721847,218.29601 L 63.914455,216.48863 L 63.552977,213.23531 C 63.552977,210.70496 64.637411,207.45166 66.444804,204.19835 C 67.529239,202.39096 68.613675,200.58358 70.059587,199.13765 L 74.03585,195.88435 C 75.481765,194.79991 76.566199,194.43844 77.650634,194.07696 L 80.542462,194.07696 C 81.265419,194.43844 81.265419,195.52287 80.90394,196.96879 L 78.73507,201.30653 L 80.542462,201.668 C 82.349854,201.30653 83.434289,200.22209 84.518724,199.13765 C 85.60316,198.05321 86.326116,196.96879 86.326116,195.52287 C 86.326116,194.43844 85.60316,193.354 84.518724,192.26956 C 83.072811,191.18514 81.265419,190.82365 79.096547,190.82365 C 75.120285,190.82365 71.505501,191.90809 67.529239,194.43844 C 63.914455,196.6073 61.022629,199.13765 58.853757,202.39096 L 55.961931,207.45166 C 55.600451,209.25905 55.238972,210.70496 55.238972,212.15088 z M 150.30779,191.18514 L 143.07823,192.26956 C 140.54788,192.99253 138.37901,194.07696 136.57161,195.52287 C 134.40274,196.96879 132.59535,198.77618 131.14944,200.58358 L 127.89613,206.7287 C 127.53465,208.89758 127.17318,211.06644 127.53465,212.87383 C 127.89613,214.68123 128.61909,216.12714 129.70352,217.57305 C 130.78796,219.38045 132.23387,220.46488 134.04126,221.18784 C 135.84866,221.91079 138.01753,222.27228 140.54788,222.27228 C 143.07823,222.27228 145.2471,221.91079 147.77745,221.18784 C 149.94631,220.46488 152.11519,219.38045 154.28406,217.57305 C 156.09145,216.12714 157.89884,214.68123 159.34475,212.87383 C 161.15215,211.06644 162.23658,208.89758 162.59806,206.7287 C 163.32102,204.55984 163.68249,202.39096 163.32102,200.58358 C 162.95954,198.77618 162.23658,196.96879 161.15215,195.52287 C 160.06771,194.07696 158.26032,192.99253 156.45293,192.26956 C 154.64553,191.54661 152.47666,191.18514 150.30779,191.18514 z M 153.19962,195.16139 C 153.92258,195.52287 154.64553,196.6073 155.00701,197.69174 C 155.36849,198.77618 155.72997,200.22209 155.36849,201.668 C 155.00701,203.11393 154.64553,204.92131 153.92258,206.7287 C 152.47666,210.34349 150.66927,213.23531 148.13892,215.76566 C 145.60857,218.29601 143.07823,219.38045 140.54788,219.38045 C 139.46344,219.38045 138.37901,219.01896 137.65605,218.29601 C 136.57161,217.93454 136.21014,216.8501 135.84866,215.76566 C 135.48718,214.68123 135.1257,213.23531 135.48718,211.7894 C 135.48718,210.34349 135.84866,208.53609 136.57161,206.7287 C 138.37901,203.11393 140.1864,200.22209 142.71675,198.05321 L 146.69301,195.16139 L 150.30779,194.07696 C 151.39223,194.07696 152.47666,194.43844 153.19962,195.16139"
     id="path17"
     style="fill:#0080d0;fill-opacity:1;fill-rule:evenodd;stroke:none" /><path
     d="M 251.16027,181.78669 L 237.78557,213.95828 C 237.42409,215.04271 237.78557,216.12714 238.14705,217.21157 C 238.50852,217.57305 239.23148,217.93454 240.31592,218.29601 L 239.95444,217.93454 L 238.87,216.8501 L 239.23148,214.31975 C 239.59296,212.87383 241.03887,209.62053 243.20774,204.55984 L 252.60618,184.31704 C 253.32913,182.50965 253.69062,181.06374 253.69062,179.9793 C 253.32913,176.726 252.24471,175.28008 250.43731,174.9186 C 252.24471,176.36451 252.24471,178.53339 251.16027,181.78669 z M 232.00191,202.02949 C 231.64043,200.22209 231.27896,198.77618 230.91748,197.69174 C 230.19452,196.24582 229.47156,195.16139 228.38713,194.07696 C 227.30269,192.99253 225.85678,192.26956 224.41087,191.90809 L 227.66417,194.43844 C 228.74861,195.52287 229.47156,196.6073 229.83304,198.05321 L 230.556,202.02949 L 229.83304,206.36722 C 229.47156,208.17461 228.38713,209.62053 227.30269,211.42791 C 226.21826,213.23531 224.77235,214.68123 222.96495,216.12714 C 221.15756,217.21157 219.35017,218.29601 217.54278,219.38045 C 215.37391,220.46488 213.20504,220.82636 211.39764,221.18784 L 204.89103,220.82636 C 202.36068,220.46488 200.55329,219.74193 198.7459,218.29601 C 199.83033,219.38045 201.27625,220.46488 203.08364,221.18784 C 204.89103,221.91079 206.69842,222.27228 209.22877,222.27228 C 211.39764,222.27228 213.56651,221.91079 216.09686,221.18784 C 218.62721,220.46488 220.79608,219.38045 222.60348,217.57305 C 224.77235,216.12714 226.57974,214.68123 228.02565,212.87383 C 229.47156,211.06644 230.556,208.89758 231.27896,206.7287 L 232.00191,202.02949 z M 214.65095,194.07696 L 210.67469,196.96879 C 207.78286,199.49913 205.61399,202.39096 203.8066,206.36722 C 202.36068,210.34349 201.9992,213.23531 202.72216,215.40419 L 204.52955,217.57305 C 204.89103,217.93454 205.61399,218.29601 206.69842,218.65749 C 204.89103,217.57305 204.16808,216.12714 203.8066,213.95828 C 203.44512,211.7894 204.16808,209.25905 205.25251,206.7287 L 208.8673,200.58358 C 210.31321,198.77618 211.75912,197.33026 213.56651,196.24582 L 218.26573,193.71547 L 221.51904,193.71547 L 218.62721,193.354 C 217.54278,193.354 216.09686,193.71547 214.65095,194.07696 z M 249.35288,215.04271 L 248.99139,216.12714 L 247.54548,217.93454 C 246.09957,219.38045 244.29218,220.46488 242.48479,220.82636 L 239.95444,221.18784 L 236.70113,220.82636 C 234.17078,220.46488 232.72487,219.38045 232.00191,217.57305 C 232.36339,219.01896 233.08635,220.1034 234.17078,220.82636 C 235.25522,221.54931 236.33965,221.91079 238.14705,222.27228 L 242.48479,222.27228 C 243.9307,221.91079 245.37661,221.18784 246.46106,220.46488 C 247.54548,219.74193 248.62992,218.65749 248.99139,217.57305 L 249.71436,215.76566 L 249.35288,215.04271 z M 288.75402,193.71547 C 289.1155,194.07696 289.1155,195.16139 288.75402,196.24582 L 284.41628,209.25905 C 283.33184,212.15088 282.97037,214.68123 282.97037,216.48863 C 282.97037,217.57305 283.33184,218.29601 284.05481,218.65749 L 285.86219,219.01896 C 285.13924,218.65749 284.77776,218.29601 284.77776,217.57305 C 284.41628,216.48863 284.77776,214.68123 285.13924,212.15088 C 285.50072,210.34349 286.22367,207.81314 287.30811,205.28279 L 289.47698,199.13765 C 290.19993,197.33026 290.56141,195.88435 290.19993,195.52287 C 290.19993,194.79991 289.83846,194.07696 288.75402,193.71547 z M 293.45325,209.25905 L 295.26063,205.28279 C 296.70655,202.75244 298.51394,200.58358 300.68281,198.77618 C 302.49019,196.96879 304.65908,195.52287 307.18942,194.43844 L 313.33456,192.26956 L 318.03378,191.54661 L 323.09447,192.26956 C 324.54038,192.63105 325.62482,192.99253 326.34777,194.07696 C 328.15517,190.82365 329.60108,187.20886 331.04699,183.2326 C 332.13143,179.25635 332.8544,176.36451 332.8544,174.9186 L 332.8544,173.11121 L 334.66178,173.47269 C 336.46917,173.83416 337.55361,174.55712 338.63804,175.64155 C 339.72247,176.726 340.44543,178.17191 340.08396,179.25635 C 339.72247,180.70226 338.99952,182.87113 337.91508,186.12443 L 335.02326,193.354 L 327.07073,209.62053 C 325.62482,212.15088 324.90186,214.31975 324.90186,216.12714 L 324.90186,217.93454 L 325.98629,217.93454 L 328.87812,217.57305 L 331.04699,217.21157 L 330.32403,219.38045 C 329.60108,220.82636 328.51664,221.91079 326.70926,222.63375 L 321.64856,222.27228 L 319.84117,221.91079 L 319.84117,221.54931 L 318.03378,219.74193 C 317.31082,218.65749 316.94933,217.21157 316.94933,215.40419 L 315.50342,216.8501 C 311.52716,220.46488 307.55091,222.63375 303.57463,223.3567 L 299.95986,222.99523 C 298.87542,222.63375 297.42951,222.27228 296.34507,221.18784 L 293.81472,218.65749 L 293.45325,217.93454 C 292.7303,216.12714 292.36881,214.31975 292.7303,212.51236 L 293.45325,209.25905 z M 258.02836,211.7894 C 258.02836,213.23531 258.38984,214.31975 258.75131,215.40419 C 259.1128,216.48863 259.47427,217.21157 260.55871,217.57305 C 261.28167,218.29601 262.00462,218.65749 263.08906,218.29601 L 262.36609,217.93454 C 261.28167,217.57305 260.55871,216.8501 260.19723,215.40419 C 259.83576,214.31975 259.47427,212.87383 259.83576,211.42791 C 259.83576,209.62053 260.19723,207.81314 261.28167,206.00575 C 262.00462,204.19835 263.08906,202.39096 264.89644,200.58358 C 267.06532,198.4147 269.59567,196.6073 272.48749,195.52287 C 275.74079,194.43844 278.63262,194.43844 281.88593,195.16139 C 279.35558,193.354 276.10228,192.99253 272.12602,194.07696 C 268.87272,195.16139 265.98088,196.96879 263.45053,199.49913 C 260.92018,202.02949 259.47427,204.92131 258.75131,208.17461 L 258.02836,211.7894 z M 271.04158,220.82636 C 273.93341,219.01896 276.10228,216.48863 277.90967,213.95828 L 278.63262,211.42791 L 278.99411,209.982 C 276.82523,213.23531 274.65637,216.12714 272.12602,218.29601 C 269.59567,220.1034 267.06532,221.54931 264.53497,222.27228 C 262.72758,222.63375 260.92018,222.63375 259.47427,222.27228 C 257.66688,221.91079 256.22097,221.18784 255.13653,220.1034 C 255.85948,221.18784 256.94393,222.27228 258.38984,222.99523 L 263.08906,223.71819 L 267.06532,222.99523 C 268.51123,222.63375 269.95714,221.91079 271.04158,220.82636 z M 291.28437,217.57305 L 290.92289,218.65749 C 290.92289,219.38045 290.56141,220.1034 289.83846,220.82636 C 289.1155,221.54931 288.39254,222.27228 287.30811,222.63375 L 284.41628,223.3567 L 281.16297,222.63375 L 278.99411,221.18784 C 278.27114,220.46488 277.90967,219.38045 277.90967,218.29601 C 278.27114,219.38045 278.63262,220.1034 279.71706,220.46488 L 282.60888,221.54931 C 284.77776,221.91079 286.58516,221.54931 288.39254,220.46488 L 290.19993,218.65749 L 291.28437,217.21157 L 291.28437,217.57305 z M 300.68281,215.04271 C 300.32133,212.87383 300.68281,210.70496 301.76725,208.17461 C 302.85168,205.28279 305.02055,202.75244 307.55091,200.22209 C 310.08124,197.69174 313.33456,195.88435 316.58787,195.16139 L 322.733,194.79991 L 325.62482,195.88435 L 326.34777,194.43844 L 325.62482,195.88435 L 323.09447,200.22209 C 321.64856,202.39096 320.20265,204.55984 318.39524,206.36722 L 313.33456,211.7894 C 310.44273,214.31975 307.91238,216.12714 306.105,217.21157 C 304.2976,217.93454 303.21316,217.93454 302.12872,217.57305 L 301.04428,216.8501 L 300.68281,215.04271 z M 336.1077,201.668 C 337.91508,199.49913 339.72247,197.69174 341.89136,195.88435 L 349.12092,191.90809 C 352.01274,190.82365 354.54309,190.1007 357.07344,190.46218 C 358.15788,190.46218 359.24231,190.82365 360.32675,191.18514 C 361.77266,191.54661 362.8571,192.26956 363.21857,192.99253 C 364.30301,194.07696 364.66448,195.16139 364.30301,196.24582 C 364.30301,197.69174 363.58004,199.49913 362.13413,201.30653 C 359.60379,204.19835 355.98901,206.7287 351.28978,208.89758 C 347.67501,210.34349 344.06022,211.42791 340.08396,212.15088 L 340.08396,213.95828 C 340.08396,215.04271 340.80691,216.12714 341.89136,216.48863 L 346.59057,216.8501 L 351.28978,216.12714 C 353.09717,215.76566 354.54309,215.04271 355.98901,213.95828 L 358.15788,212.87383 L 359.96527,211.7894 C 359.60379,213.95828 359.24231,215.76566 358.15788,216.8501 C 357.07344,218.29601 355.26606,219.74193 353.45866,220.82636 C 351.65126,221.91079 349.48239,222.27228 347.67501,222.63375 C 345.50613,222.99523 343.33727,222.99523 341.52987,222.63375 C 339.361,222.27228 337.55361,221.54931 335.74622,220.46488 C 333.21587,218.65749 332.13143,216.48863 331.76996,213.95828 C 331.40848,212.15088 331.76996,209.982 332.49291,207.81314 C 333.21587,206.00575 334.30031,203.83688 336.1077,201.668 z M 341.52987,207.45166 C 350.20535,203.4754 355.62753,199.86061 358.15788,196.6073 C 358.88083,195.52287 358.88083,194.79991 358.51936,194.43844 L 356.71197,194.07696 L 354.54309,194.43844 C 352.73569,194.79991 350.56683,195.88435 348.75943,197.33026 C 346.59057,199.13765 344.78318,201.668 343.33727,204.19835 L 341.52987,207.45166 z M 98.97786,174.19564 L 98.616382,172.38825 L 100.78525,173.11121 C 102.59264,173.47269 104.03856,173.83416 105.12299,174.9186 C 106.20743,176.00304 106.93039,177.08746 106.93039,178.53339 C 106.56891,181.06374 105.48447,185.04 104.03856,190.1007 C 102.23116,194.79991 100.78525,198.77618 99.339339,201.668 C 102.95412,199.13765 106.56891,196.96879 109.82221,195.16139 C 114.15995,192.99253 117.77474,191.90809 121.02804,191.90809 C 123.55839,191.90809 125.36578,192.26956 126.8117,193.354 C 128.61909,194.79991 128.98057,196.6073 128.25761,199.13765 C 127.53465,201.30653 126.45022,203.83688 125.36578,206.7287 L 122.47396,212.51236 C 121.751,214.31975 121.38952,216.12714 121.02804,217.21157 C 121.02804,218.29601 121.38952,219.01896 121.751,219.74193 L 122.83543,221.18784 L 118.85917,221.91079 C 116.6903,221.91079 114.88291,221.54931 113.437,220.82636 L 113.07552,220.82636 C 112.35256,220.46488 111.99108,219.74193 111.6296,218.65749 C 111.26813,217.93454 111.26813,217.21157 111.6296,216.12714 C 111.99108,214.68123 112.35256,212.87383 113.437,211.06644 L 118.13622,200.58358 L 118.85917,198.77618 C 118.85917,198.05321 118.85917,197.69174 118.49769,197.33026 L 116.32882,197.33026 L 114.88291,197.69174 C 109.09926,200.22209 104.03856,203.83688 99.700816,208.53609 L 95.001597,215.40419 C 93.917162,217.57305 92.832727,219.74193 92.10977,221.54931 L 91.748292,222.99523 L 90.302379,222.63375 L 87.410551,221.18784 C 86.326116,220.82636 85.60316,220.1034 85.24168,219.38045 L 84.880202,217.93454 L 84.880202,216.8501 L 87.410551,211.7894 C 89.217944,207.81314 91.025335,202.75244 93.194206,196.6073 C 95.363076,189.73921 96.80899,184.67851 97.893425,181.06374 C 98.97786,177.44895 99.339339,175.28008 98.97786,174.19564 z M 37.165054,175.64155 L 42.225751,173.11121 L 48.370882,172.02678 C 51.262711,172.02678 53.79306,172.38825 55.600451,173.11121 C 57.046365,173.83416 58.1308,174.9186 59.215236,176.36451 C 59.938192,177.44895 60.29967,178.53339 60.661149,179.9793 L 60.29967,182.87113 C 59.215236,185.40147 57.769321,187.20886 55.238972,188.2933 L 53.070102,189.37774 L 49.093841,189.73921 L 50.539754,187.57034 C 53.070102,183.59409 54.154539,180.70226 53.431581,178.89486 C 53.070102,178.17191 52.708624,177.81044 51.62419,177.44895 L 48.732362,176.726 C 46.202014,176.726 44.033144,177.44895 42.225751,178.89486 C 40.418359,179.9793 39.333924,181.78669 38.972445,183.95556 L 38.972445,186.12443 L 40.05688,187.57034 L 45.479056,192.99253 C 48.370882,195.52287 50.539754,198.05321 51.62419,200.58358 C 52.708624,203.11393 53.070102,205.28279 52.708624,207.45166 C 52.347146,209.62053 51.985667,211.42791 50.901232,213.23531 C 49.816797,215.04271 48.370882,216.8501 46.563492,218.29601 C 44.7561,219.74193 42.225751,220.82636 39.695402,221.54931 C 36.803575,222.63375 33.550269,222.99523 29.935485,222.63375 C 27.766615,222.63375 25.597744,222.27228 23.790351,221.18784 C 21.260002,219.74193 19.091132,217.57305 18.006697,215.04271 C 17.645219,213.95828 17.283741,212.15088 17.645219,210.34349 L 18.006697,207.81314 L 19.81409,204.55984 L 21.260002,209.982 L 22.705918,213.23531 C 24.513309,215.76566 26.68218,216.8501 29.935485,216.48863 C 32.104356,216.48863 34.273226,215.76566 36.442096,214.68123 L 38.972445,212.15088 L 40.779836,209.62053 C 41.502794,207.81314 41.864272,206.00575 41.502794,204.19835 C 40.779836,202.02949 39.333924,199.86061 37.526531,198.05321 C 34.996183,195.52287 33.18879,193.354 32.465834,190.82365 C 31.381397,189.01625 31.01992,187.20886 31.381397,185.04 C 31.742878,183.2326 32.104356,181.42521 33.18879,179.9793 C 34.273226,178.17191 35.357661,176.726 37.165054,175.64155 z M 59.215236,220.1034 C 61.022629,221.18784 63.191497,221.91079 65.721847,222.27228 L 73.312894,221.91079 C 75.843243,221.18784 78.373591,220.1034 80.180982,218.65749 C 82.349854,216.8501 83.795767,215.04271 84.880202,212.51236 C 85.24168,211.7894 84.880202,211.06644 84.518724,210.70496 C 83.434289,215.40419 80.180982,218.65749 74.03585,220.46488 C 70.782545,221.54931 67.529239,221.91079 64.637411,221.54931 C 62.83002,221.18784 60.661149,220.82636 58.853757,219.74193 L 59.215236,220.1034 z M 62.83002,216.48863 C 63.552977,217.57305 64.637411,217.93454 65.721847,218.29601 L 63.914455,216.48863 L 63.552977,213.23531 C 63.552977,210.70496 64.637411,207.45166 66.444804,204.19835 L 71.144024,198.05321 C 72.951415,196.24582 74.397329,195.16139 76.204721,194.43844 C 78.012114,193.71547 79.458026,193.354 80.542462,193.71547 C 81.626896,193.71547 81.988375,194.07696 82.349854,194.43844 C 81.988375,193.71547 81.626896,193.354 80.90394,192.99253 C 79.819505,192.63105 78.73507,192.63105 77.289156,192.99253 C 75.481765,193.354 73.312894,194.43844 71.144024,196.24582 C 68.613675,198.4147 66.806282,200.94504 65.360369,203.4754 C 63.191497,207.45166 62.107062,210.70496 62.107062,213.59679 L 62.83002,216.48863 z M 84.880202,193.354 L 84.880202,195.88435 C 84.518724,196.96879 83.795767,197.69174 83.072811,198.4147 C 82.349854,199.49913 81.265419,200.22209 80.180982,200.58358 L 78.73507,201.30653 L 80.542462,201.668 C 82.349854,201.30653 83.434289,200.22209 84.518724,199.13765 C 85.60316,198.05321 86.326116,196.96879 86.326116,195.52287 L 85.60316,193.354 L 83.434289,191.54661 L 84.880202,193.354 z M 180.67198,174.9186 C 181.75642,176.00304 182.47937,177.08746 182.47937,178.17191 C 182.47937,179.25635 181.75642,181.78669 180.3105,186.48591 L 176.33424,198.77618 L 179.22607,196.6073 C 181.75642,194.43844 184.64824,192.99253 187.90155,191.90809 C 191.51633,190.46218 194.76964,190.1007 197.66146,191.18514 C 198.7459,191.54661 199.10738,192.99253 198.02294,195.16139 L 196.57703,197.69174 L 195.85407,199.13765 C 195.49259,198.05321 194.76964,197.33026 193.6852,196.96879 C 192.60077,196.24582 191.15485,195.88435 190.07042,196.24582 C 187.54007,196.6073 185.3712,197.69174 182.84085,199.13765 C 181.03346,200.22209 179.22607,201.668 177.78015,203.4754 C 180.3105,202.39096 182.11789,201.668 183.92529,201.30653 C 186.09416,200.94504 188.26303,201.30653 190.07042,201.668 C 191.15485,202.02949 192.23929,203.11393 192.96225,204.19835 L 193.32372,206.00575 L 192.96225,207.45166 L 189.70894,216.8501 C 189.34746,218.29601 189.70894,219.74193 190.79337,220.82636 C 185.3712,222.63375 182.47937,221.54931 182.11789,218.29601 C 181.75642,217.21157 181.75642,215.40419 182.84085,212.87383 C 185.00972,208.17461 185.73268,205.64426 184.64824,206.00575 C 183.20233,206.00575 180.67198,206.7287 177.0572,208.53609 C 174.52685,209.62053 172.71945,211.7894 171.27354,214.68123 L 168.38171,222.27228 L 164.76693,220.82636 L 162.23658,218.65749 L 162.23658,216.8501 L 169.46615,196.6073 C 171.63502,190.1007 173.08093,185.04 173.80389,181.06374 C 174.88833,177.44895 175.2498,175.28008 174.88833,174.19564 L 174.52685,172.74972 L 176.33424,173.11121 C 178.14163,173.47269 179.58755,173.83416 180.67198,174.9186 z M 152.83814,193.71547 L 149.94631,193.354 C 148.86188,193.354 147.41597,193.71547 145.97005,194.07696 L 141.99379,196.96879 C 139.10196,199.49913 136.93309,202.39096 135.48718,206.36722 C 133.67979,210.34349 133.31831,213.23531 134.40274,215.40419 C 134.76422,216.48863 135.1257,217.21157 135.84866,217.57305 L 138.01753,218.65749 C 136.21014,217.57305 135.48718,216.12714 135.48718,213.95828 C 135.1257,211.7894 135.48718,209.25905 136.57161,206.7287 L 140.1864,200.58358 C 141.63231,198.77618 143.07823,197.33026 144.88562,196.24582 L 149.94631,193.71547 L 152.83814,193.71547 z M 134.40274,221.18784 C 136.21014,221.91079 138.37901,222.27228 140.54788,222.27228 C 143.07823,222.27228 145.2471,221.91079 147.77745,221.18784 C 149.94631,220.46488 152.11519,219.38045 154.28406,217.57305 C 156.09145,216.12714 157.89884,214.68123 159.34475,212.87383 C 161.15215,211.06644 162.23658,208.89758 162.59806,206.7287 L 163.32102,202.02949 C 163.32102,200.22209 162.95954,198.77618 162.23658,197.69174 C 161.51362,196.24582 160.79067,195.16139 159.70623,194.07696 C 158.6218,192.99253 157.17588,192.26956 155.72997,191.90809 L 159.34475,194.43844 C 160.06771,195.52287 160.79067,196.6073 161.15215,198.05321 L 161.8751,202.02949 L 161.15215,206.36722 C 160.79067,208.17461 159.70623,209.62053 158.6218,211.42791 C 157.53736,213.23531 156.09145,214.68123 154.28406,216.12714 C 152.47666,217.21157 150.66927,218.29601 148.86188,219.38045 C 147.05449,220.46488 144.88562,220.82636 143.07823,221.18784 L 136.21014,220.82636 C 133.67979,220.46488 131.87239,219.74193 130.065,218.29601 C 131.14944,219.38045 132.59535,220.46488 134.40274,221.18784"
     id="path19"
     style="fill:#00479b;fill-opacity:1;fill-rule:evenodd;stroke:none" /><path
     d="M 371.17109,181.78669 C 370.80962,183.2326 370.44814,184.67851 370.44814,185.76295 C 370.44814,187.20886 370.80962,188.65479 371.17109,189.73921 C 371.53258,190.82365 372.25553,191.90809 373.33997,192.63105 C 374.06292,193.71547 375.14736,194.43844 376.23179,194.79991 L 380.20806,195.52287 L 384.18432,194.79991 C 385.26876,194.43844 386.35319,193.71547 387.07614,192.63105 C 388.16058,191.90809 388.88353,190.82365 389.24502,189.73921 C 389.60649,188.65479 389.96797,187.20886 389.96797,185.76295 C 389.96797,184.67851 389.60649,183.2326 389.24502,181.78669 L 387.07614,178.89486 C 386.35319,177.81044 385.26876,177.08746 384.18432,176.726 C 383.09988,176.36451 381.65397,176.00304 380.20806,176.00304 L 376.23179,176.726 C 375.14736,177.08746 374.06292,177.81044 373.33997,178.89486 L 371.17109,181.78669 z M 376.59327,180.34078 L 376.59327,191.54661 L 378.40067,191.54661 L 378.40067,186.84739 L 380.20806,186.84739 L 382.01546,187.20886 C 382.37693,187.57034 382.37693,187.93183 382.37693,188.65479 L 383.09988,191.54661 L 384.90728,191.54661 L 384.18432,189.73921 L 384.18432,187.93183 L 383.46137,186.48591 L 382.73841,185.76295 L 383.82284,185.40147 L 384.54579,183.2326 C 384.54579,182.14818 384.18432,181.42521 383.09988,181.06374 C 382.73841,180.70226 381.65397,180.34078 380.56955,180.34078 L 376.59327,180.34078 z M 380.20806,177.81044 L 383.09988,178.53339 L 385.63023,180.34078 L 387.43762,182.87113 L 388.16058,185.76295 L 387.43762,189.01625 L 385.63023,191.18514 C 384.90728,191.90809 384.18432,192.63105 383.09988,192.99253 C 371.15904,197.13748 367.80332,178.73822 380.20806,177.81044 z M 382.73841,183.59409 L 382.01546,185.04 L 378.03918,185.04 L 378.03918,181.78669 L 380.56955,181.78669 L 382.01546,182.14818 C 382.37693,182.50965 382.73841,182.87113 382.73841,183.59409 M 250.79879,176.726 C 251.52175,177.08746 251.88322,177.81044 251.88322,178.53339 L 251.52175,179.9793 C 251.16027,181.78669 250.43731,184.31704 248.99139,187.93183 L 239.23148,210.34349 L 237.78557,213.95828 C 237.06261,216.48863 237.42409,217.93454 239.23148,219.01896 L 244.65366,218.65749 L 247.18401,217.21157 L 248.99139,215.76566 C 248.62992,216.8501 248.26844,217.57305 247.18401,218.65749 C 245.73809,219.74193 244.29218,220.46488 242.48479,220.82636 L 238.87,221.18784 L 234.89374,219.74193 C 233.8093,218.65749 233.08635,217.21157 233.08635,215.40419 C 233.08635,213.95828 233.44783,212.15088 234.17078,210.34349 C 235.25522,207.81314 236.70113,203.83688 238.87,199.13765 L 245.01514,183.2326 C 246.09957,179.61783 246.82252,176.726 247.18401,174.9186 L 250.79879,176.726 z M 254.41357,206.00575 C 255.49802,203.4754 256.94393,201.668 258.75131,199.86061 L 264.1735,195.88435 L 269.95714,193.71547 L 273.93341,192.99253 C 275.74079,192.99253 277.54819,193.354 278.99411,193.71547 C 280.07854,194.07696 281.16297,194.43844 281.88593,195.16139 C 279.35558,193.354 276.10228,192.99253 272.12602,194.07696 C 268.87272,195.16139 265.98088,196.96879 263.45053,199.49913 C 260.92018,202.02949 259.47427,204.92131 258.75131,208.17461 C 258.02836,210.70496 258.02836,213.23531 258.75131,215.40419 L 259.83576,217.57305 L 261.28167,218.65749 C 263.08906,219.74193 264.89644,219.38045 266.70383,218.29601 C 268.51123,217.21157 270.68009,215.40419 273.21046,212.87383 L 277.90967,206.7287 L 281.52446,200.94504 C 283.33184,197.69174 284.41628,195.16139 284.41628,193.71547 L 287.66958,194.79991 C 288.39254,195.16139 288.75402,195.52287 288.75402,195.88435 L 284.41628,209.25905 C 283.33184,212.15088 282.97037,214.68123 282.97037,216.48863 L 282.97037,217.93454 L 284.05481,219.01896 C 284.41628,219.38045 285.13924,219.74193 286.22367,219.74193 L 288.39254,219.01896 L 290.92289,217.57305 L 289.83846,219.01896 L 288.03107,220.46488 C 286.22367,221.54931 284.41628,221.91079 282.24742,221.54931 L 281.16297,221.18784 L 278.63262,218.65749 C 277.90967,216.8501 277.54819,214.68123 277.90967,212.15088 L 278.27114,210.70496 C 275.01785,217.57305 269.95714,221.54931 263.81201,222.63375 L 260.92018,222.27228 L 257.66688,220.82636 L 254.77504,218.29601 C 253.69062,216.8501 252.96766,215.04271 252.96766,212.87383 C 252.96766,210.70496 253.32913,208.53609 254.41357,206.00575 z M 229.47156,197.33026 L 230.556,201.30653 L 229.83304,206.36722 C 229.47156,208.17461 228.38713,209.62053 227.30269,211.42791 L 222.96495,216.12714 C 221.15756,217.21157 219.35017,218.29601 217.54278,219.38045 C 215.37391,220.46488 213.20504,220.82636 211.39764,221.18784 L 206.69842,221.18784 L 202.36068,219.74193 C 201.27625,219.01896 200.19181,217.93454 199.46886,216.8501 C 198.38442,215.76566 197.66146,214.31975 197.29999,212.51236 C 196.93851,210.70496 197.29999,208.89758 198.02294,207.09018 C 199.10738,203.83688 200.91477,201.30653 203.44512,198.77618 C 205.97547,196.24582 209.22877,194.43844 212.48208,193.354 L 217.90426,192.26956 L 222.96495,192.63105 C 224.41087,192.99253 225.85678,193.354 226.94121,194.07696 C 228.02565,195.16139 229.11009,196.24582 229.47156,197.33026 z M 219.35017,193.354 C 217.90426,192.99253 216.45834,193.354 215.01243,194.07696 C 213.92799,194.43844 212.48208,195.16139 211.03617,196.24582 C 208.14434,198.77618 205.61399,202.02949 203.8066,206.36722 C 202.72216,208.53609 202.36068,210.70496 202.36068,212.51236 C 202.36068,214.31975 202.72216,215.76566 203.44512,216.8501 C 203.8066,217.93454 204.89103,218.65749 205.97547,219.38045 L 209.22877,220.1034 C 212.1206,220.1034 215.01243,219.01896 217.54278,216.8501 C 220.07313,214.31975 221.88052,211.06644 223.68791,207.09018 C 225.4953,202.75244 225.85678,199.13765 224.77235,196.6073 L 222.60348,194.07696 C 221.51904,193.71547 220.4346,193.354 219.35017,193.354 z M 294.17621,204.55984 C 296.70655,199.86061 300.68281,196.24582 306.105,193.71547 L 312.25012,191.54661 L 316.94933,190.82365 L 322.37152,191.18514 C 323.81743,191.54661 324.90186,191.90809 325.62482,192.99253 C 327.43221,189.73921 328.87812,186.12443 329.96257,182.14818 C 331.04699,178.17191 331.76996,175.64155 331.76996,174.19564 L 331.40848,172.38825 L 333.57734,173.11121 C 335.02326,173.47269 336.46917,173.83416 337.55361,174.9186 C 338.63804,176.00304 339.361,177.44895 338.99952,178.53339 C 337.25238,188.38367 328.19734,201.04144 325.98629,208.89758 C 324.54038,211.42791 323.81743,213.59679 323.81743,215.40419 L 323.45594,216.8501 L 324.17891,217.57305 L 325.26334,218.29601 L 328.51664,217.93454 C 329.96257,217.57305 331.04699,216.8501 331.76996,216.48863 L 332.13143,215.76566 L 331.76996,213.23531 C 331.40848,211.42791 331.76996,209.62053 332.49291,207.81314 C 333.21587,206.00575 334.30031,203.83688 335.74622,201.668 C 337.55361,199.49913 339.361,197.69174 341.52987,195.88435 L 348.39796,191.90809 C 350.92831,190.82365 353.82015,190.46218 356.35048,190.82365 L 359.24231,191.54661 C 360.32675,191.90809 361.41118,192.26956 361.77266,192.99253 L 361.77266,193.354 L 362.49562,193.71547 C 363.58004,195.52287 363.21857,197.69174 361.04971,200.58358 C 358.51936,203.4754 354.90457,206.00575 349.84387,208.17461 C 346.22909,209.62053 342.61431,210.70496 338.99952,211.42791 L 338.63804,213.95828 L 338.99952,215.40419 L 340.44543,216.8501 C 341.89136,217.21157 343.69874,217.57305 345.86761,217.57305 C 348.03648,217.21157 350.20535,216.8501 352.37422,215.76566 C 354.90457,214.68123 356.71197,213.23531 358.51936,211.42791 L 359.96527,210.70496 L 359.96527,211.7894 C 359.60379,213.59679 358.51936,215.04271 357.07344,216.8501 C 355.26606,218.65749 353.45866,219.74193 351.28978,220.46488 C 349.12092,221.54931 346.95204,221.91079 344.78318,221.91079 L 342.97578,221.91079 C 340.08396,221.91079 337.55361,221.18784 335.02326,219.38045 C 333.93882,218.29601 332.8544,217.21157 332.13143,215.76566 L 329.96257,218.65749 L 327.43221,220.46488 L 326.34777,221.18784 L 325.26334,221.54931 L 321.28708,221.91079 L 320.20265,221.54931 L 319.47969,221.18784 L 318.75673,221.18784 L 317.6723,219.74193 L 316.94933,217.57305 L 317.31082,213.59679 C 314.41898,216.8501 311.16568,219.38045 307.55091,220.82636 C 305.74351,221.91079 304.2976,222.27228 302.49019,222.63375 L 298.87542,222.27228 C 297.79098,221.91079 296.34507,221.54931 295.26063,220.46488 L 292.7303,217.93454 C 291.64585,216.12714 290.92289,213.95828 291.28437,211.7894 C 291.64585,209.25905 292.7303,207.09018 294.17621,204.55984 z M 300.68281,207.45166 C 299.59837,209.982 299.2369,212.51236 299.59837,214.31975 L 299.59837,215.40419 L 299.95986,216.12714 L 301.04428,217.21157 L 302.12872,217.57305 L 303.57463,217.57305 L 305.38203,216.8501 L 311.88864,211.06644 L 317.31082,205.64426 C 319.11821,203.83688 320.56412,202.02949 322.01003,199.49913 L 323.81743,195.88435 L 325.62482,195.88435 C 325.26334,195.52287 324.54038,195.16139 323.45594,194.79991 L 321.28708,194.07696 L 318.75673,193.71547 L 315.14194,194.43844 C 311.88864,195.16139 308.99682,196.96879 306.46646,199.49913 L 305.74351,199.86061 L 305.38203,200.22209 C 303.57463,202.02949 302.12872,203.83688 301.04428,206.00575 L 300.68281,206.7287 L 300.68281,207.45166 z M 348.03648,196.6073 C 345.50613,198.4147 343.69874,200.94504 342.25282,203.4754 C 341.16839,205.28279 340.08396,207.09018 339.72247,208.53609 L 348.75943,203.83688 C 352.73569,201.30653 355.62753,199.13765 357.07344,197.33026 L 357.79639,195.52287 L 357.07344,194.07696 L 355.26606,193.71547 L 352.73569,194.07696 L 350.20535,195.16139 L 348.03648,196.6073 z M 104.40004,173.47269 C 105.48447,174.55712 105.84595,175.64155 105.84595,177.08746 L 105.48447,179.25635 C 105.12299,181.78669 104.03856,184.67851 102.95412,188.65479 L 102.59264,189.01625 C 100.78525,194.43844 99.339339,198.77618 98.254904,201.668 L 97.531948,202.39096 L 97.531948,202.75244 L 96.447511,204.55984 L 100.42377,200.94504 L 106.93039,196.24582 C 109.46073,194.79991 111.6296,193.71547 113.437,192.99253 C 115.96735,191.90809 118.13622,191.54661 119.94361,191.90809 C 122.47396,191.90809 124.28135,192.26956 125.36578,193.354 C 126.45022,194.07696 126.8117,195.16139 127.17318,196.24582 L 126.8117,198.77618 L 123.91987,206.36722 L 121.38952,212.15088 C 120.30509,214.31975 119.94361,215.76566 119.94361,216.8501 C 119.58213,217.57305 119.58213,218.29601 119.94361,218.65749 L 120.30509,219.74193 L 121.38952,220.82636 L 117.77474,221.18784 C 115.60587,221.54931 113.79847,221.18784 112.35256,220.46488 L 111.99108,220.46488 C 111.26813,220.1034 110.90665,219.38045 110.54517,218.65749 L 110.54517,215.76566 L 118.49769,198.4147 L 118.49769,197.69174 L 118.13622,197.33026 L 116.6903,196.96879 L 115.24439,196.96879 L 113.79847,197.33026 C 108.01482,199.86061 102.95412,203.4754 98.616382,208.17461 L 93.555684,215.04271 L 92.832727,216.48863 L 91.386814,219.74193 L 90.663857,221.18784 L 90.663857,221.54931 L 90.302379,222.63375 L 86.687595,220.82636 C 85.60316,220.46488 84.518724,219.74193 84.157245,219.01896 L 83.795767,217.93454 L 84.157245,216.8501 L 86.326116,211.7894 C 88.133509,207.81314 89.9409,202.75244 92.471249,195.88435 C 95.001597,188.65479 96.447511,183.2326 97.531948,179.25635 C 98.254904,176.00304 98.616382,173.83416 98.254904,172.74972 L 98.254904,170.94234 L 99.700816,171.6653 C 101.50821,172.02678 103.3156,172.38825 104.40004,173.47269 z M 38.610966,180.70226 L 40.779836,178.89486 C 42.587229,177.81044 44.7561,177.08746 47.286449,176.726 L 49.816797,177.44895 C 50.901232,177.81044 51.262711,178.17191 51.62419,179.25635 C 52.708624,181.06374 51.62419,183.95556 48.732362,187.57034 L 47.286449,189.73921 L 51.262711,189.37774 L 53.431581,188.2933 C 54.877495,187.57034 55.961931,186.84739 57.046365,185.76295 C 57.769321,184.67851 58.49228,183.59409 58.853757,182.50965 C 59.215236,181.78669 59.215236,181.06374 59.215236,179.9793 L 58.1308,176.726 L 57.046365,175.64155 C 56.323409,174.55712 55.238972,173.83416 53.79306,173.47269 C 51.985667,172.38825 49.455319,172.02678 46.92497,172.02678 L 40.779836,173.11121 L 35.357661,176.00304 L 31.742878,179.9793 C 30.658441,181.42521 30.296964,183.2326 29.935485,185.04 C 29.574006,187.20886 29.935485,189.37774 30.658441,191.18514 C 31.742878,193.354 33.550269,195.52287 36.080618,198.05321 C 37.88801,199.86061 39.333924,202.02949 39.695402,204.19835 C 40.05688,206.00575 40.05688,208.17461 39.333924,209.982 L 37.526531,212.51236 L 34.996183,214.68123 C 32.827313,215.76566 30.658441,216.48863 28.128092,216.8501 C 26.3207,216.8501 24.513309,216.48863 23.428874,215.76566 C 21.621481,214.31975 20.175569,211.7894 19.452611,208.17461 L 19.452611,206.7287 L 19.81409,203.83688 L 16.560784,207.81314 L 15.837827,210.34349 C 15.476349,212.51236 15.837827,214.31975 16.199305,215.40419 C 17.283741,217.93454 19.452611,220.1034 21.98296,221.18784 C 23.790351,222.27228 25.959222,222.63375 28.489571,222.63375 C 31.742878,222.99523 34.996183,222.63375 37.88801,221.91079 C 40.418359,220.82636 42.948707,219.74193 44.7561,218.29601 C 46.563492,217.21157 47.647926,215.76566 48.732362,214.31975 L 49.816797,212.87383 C 50.539754,211.06644 51.262711,209.25905 51.62419,207.45166 C 51.985667,205.28279 51.262711,203.11393 50.178275,201.30653 C 49.455319,199.49913 48.370882,198.05321 46.92497,196.6073 L 43.671665,193.354 L 38.972445,188.2933 L 37.88801,186.12443 C 37.526531,185.40147 37.526531,184.67851 37.88801,183.59409 L 38.610966,180.70226 z M 60.661149,202.39096 L 66.083326,196.96879 L 72.589936,192.99253 C 75.120285,191.90809 77.650634,191.54661 79.819505,191.54661 C 82.349854,191.54661 84.157245,191.90809 84.518724,192.99253 C 84.880202,193.354 85.24168,194.07696 84.880202,194.79991 L 84.157245,196.96879 L 82.711331,199.13765 L 80.180982,200.58358 C 81.265419,199.49913 81.988375,198.4147 82.349854,197.33026 L 82.349854,194.43844 C 81.988375,193.71547 81.626896,193.354 80.90394,192.99253 C 79.819505,192.63105 78.373591,192.63105 77.289156,192.99253 C 75.481765,193.354 73.312894,194.43844 71.144024,196.24582 C 68.613675,198.4147 66.806282,200.94504 65.360369,203.4754 C 63.191497,207.45166 62.107062,210.70496 62.107062,213.59679 L 62.107062,213.95828 C 62.107062,216.48863 62.83002,217.93454 64.637411,219.01896 C 66.083326,219.74193 67.890717,219.74193 70.421066,219.38045 C 72.589936,219.01896 75.120285,218.29601 77.650634,216.8501 C 80.180982,215.76566 81.988375,214.31975 83.795767,212.51236 C 83.072811,213.95828 81.988375,215.40419 80.90394,216.48863 C 79.096547,218.29601 76.566199,219.38045 74.03585,220.46488 C 70.059587,221.54931 66.444804,221.91079 63.191497,221.18784 L 59.938192,219.74193 C 57.769321,218.29601 56.684887,216.48863 56.684887,213.95828 C 56.323409,212.15088 56.684887,209.982 57.407844,208.17461 C 57.769321,206.36722 58.853757,204.19835 60.661149,202.39096 z M 174.16537,178.17191 L 174.88833,174.19564 L 174.52685,172.38825 L 175.97276,172.74972 C 178.50311,173.11121 179.94902,174.19564 180.67198,175.64155 L 181.39494,177.08746 L 181.39494,178.89486 C 181.39494,179.61783 180.67198,182.14818 179.22607,186.12443 L 178.14163,189.37774 C 176.33424,195.16139 174.52685,199.86061 173.08093,203.83688 L 177.0572,198.4147 L 179.22607,196.6073 C 181.75642,194.07696 184.64824,192.63105 187.54007,191.54661 C 190.4319,190.46218 193.32372,190.1007 196.21555,190.46218 C 198.02294,190.82365 198.7459,191.90809 198.38442,193.71547 C 198.02294,194.79991 197.29999,196.24582 196.21555,198.05321 L 195.49259,196.96879 L 194.04668,195.88435 C 193.6852,195.52287 192.60077,195.16139 191.51633,195.16139 L 189.70894,195.16139 L 186.81711,196.24582 C 183.56381,197.69174 181.03346,199.13765 179.22607,200.94504 C 177.0572,202.39096 175.2498,204.19835 173.80389,206.7287 L 176.33424,204.92131 L 178.50311,203.11393 C 180.67198,202.02949 182.47937,201.668 183.92529,201.30653 L 189.70894,201.668 C 190.79337,202.02949 191.51633,202.75244 191.87781,204.19835 L 191.87781,207.45166 L 188.6245,216.8501 C 188.26303,218.29601 188.6245,219.74193 190.07042,220.82636 C 190.07042,221.18784 189.70894,221.54931 188.6245,221.54931 C 186.45564,221.91079 184.64824,221.91079 183.56381,220.82636 L 182.47937,220.1034 L 181.75642,218.29601 C 181.39494,217.21157 181.75642,215.40419 182.84085,212.51236 C 183.92529,209.982 184.64824,208.17461 185.00972,207.09018 C 185.3712,206.00575 186.09416,205.64426 186.45564,206.36722 L 186.45564,205.28279 L 184.64824,204.92131 C 182.84085,204.92131 180.3105,205.64426 176.33424,207.45166 C 175.2498,207.81314 174.16537,208.89758 173.08093,209.982 C 171.63502,211.06644 170.91206,212.51236 170.55058,213.59679 L 168.74319,217.57305 L 167.65876,220.82636 L 167.29728,221.91079 C 165.12841,221.18784 163.68249,220.46488 162.59806,219.38045 C 162.23658,219.01896 161.8751,218.29601 161.8751,217.57305 L 162.23658,215.40419 L 164.40545,211.42791 L 169.10467,197.69174 C 170.91206,192.26956 171.9965,187.57034 173.08093,183.59409 L 174.16537,178.17191 z M 158.26032,194.07696 C 159.34475,195.16139 160.42919,196.24582 160.79067,197.33026 C 161.51362,198.4147 161.8751,199.86061 161.8751,201.30653 C 162.23658,203.11393 161.8751,204.55984 161.15215,206.36722 C 160.79067,208.17461 159.70623,209.62053 158.6218,211.42791 C 157.53736,213.23531 156.09145,214.68123 154.28406,216.12714 C 152.47666,217.21157 150.66927,218.29601 148.86188,219.38045 C 147.05449,220.46488 144.88562,220.82636 143.07823,221.18784 L 138.01753,221.18784 L 134.04126,219.74193 L 130.78796,216.8501 C 129.70352,215.76566 129.34205,214.31975 128.98057,212.51236 C 128.61909,210.70496 128.98057,208.89758 129.34205,207.09018 C 130.42648,203.83688 132.23387,201.30653 134.76422,198.77618 C 137.29457,196.24582 140.54788,194.43844 143.80118,193.354 L 149.22336,192.26956 L 154.28406,192.63105 C 156.09145,192.99253 157.17588,193.354 158.26032,194.07696 z M 153.92258,194.07696 C 152.83814,193.71547 151.75371,193.354 150.66927,193.354 C 149.22336,192.99253 147.77745,193.354 146.69301,194.07696 L 142.35527,196.24582 C 139.46344,198.77618 137.29457,202.02949 135.48718,206.36722 C 134.40274,208.53609 134.04126,210.70496 133.67979,212.51236 C 133.67979,214.31975 134.04126,215.76566 134.76422,216.8501 C 135.1257,217.93454 136.21014,218.65749 137.29457,219.38045 L 140.54788,220.1034 C 143.4397,220.1034 146.33153,219.01896 148.86188,216.8501 C 151.39223,214.31975 153.5611,211.06644 155.36849,207.09018 C 157.17588,202.75244 157.53736,199.13765 156.45293,196.6073 L 153.92258,194.07696"
     id="text_hellblau"
     style="fill:#0080d0;fill-opacity:1;fill-rule:evenodd;stroke:none" /><path
     d="M 353.45866,112.38284 C 358.88083,107.32214 365.02596,105.51475 371.17109,106.96066 L 371.17109,124.31163 L 362.49562,124.31163 C 357.07344,125.39606 354.18161,128.64938 353.82015,134.07154 L 353.82015,167.68904 L 332.13143,167.68904 L 332.49291,108.40658 L 352.73569,108.40658 L 353.45866,112.38284 z M 224.04939,120.33536 C 221.51904,120.33536 219.71165,120.69684 217.90426,121.78127 C 216.45834,122.86571 215.01243,124.31163 213.92799,126.11901 L 211.39764,131.90267 L 211.03617,137.68633 L 211.03617,142.02408 L 212.84356,147.80773 C 215.37391,152.50694 218.98869,154.67581 224.04939,154.67581 C 226.21826,155.03729 228.02565,154.67581 229.83304,153.59137 C 231.64043,152.86843 232.72487,151.78397 233.8093,150.33806 C 234.89374,148.89215 235.97817,147.08476 236.70113,144.9159 C 237.06261,143.1085 237.42409,140.57815 237.42409,138.0478 C 237.42409,132.26415 235.97817,127.56493 233.44783,124.31163 C 232.36339,123.22719 230.91748,122.14275 229.11009,121.4198 C 227.66417,120.69684 225.85678,120.33536 224.04939,120.33536 z M 238.14705,87.440825 L 259.83576,87.8023 L 259.83576,167.68904 L 239.23148,167.68904 L 238.50852,164.43573 C 232.36339,167.32756 226.21826,168.77348 220.4346,168.77348 C 215.37391,168.77348 210.67469,167.68904 206.33695,165.52016 C 202.36068,163.71276 198.7459,160.82094 196.21555,156.84469 C 193.6852,153.2299 191.87781,149.25364 190.79337,144.9159 C 189.70894,140.21668 189.70894,135.87894 190.4319,131.5412 C 190.79337,126.84198 192.23929,122.86571 194.76964,119.25092 C 197.29999,115.27466 200.91477,112.38284 205.25251,110.21396 C 209.95173,107.68363 215.01243,106.23771 221.15756,106.23771 C 226.94121,105.87623 232.72487,107.68363 238.14705,111.2984 L 238.14705,87.440825 z M 285.50072,108.0451 C 288.75402,106.96066 292.36881,106.23771 295.62212,106.23771 C 322.01003,106.96066 332.8544,119.61241 328.87812,144.19294 L 284.41628,144.19294 C 284.41628,151.06103 288.39254,154.31434 296.34507,154.67581 C 301.76725,155.03729 305.02055,152.86843 306.105,148.89215 L 327.43221,148.89215 C 324.90186,162.26685 314.78047,169.13495 297.06803,169.49643 C 292.7303,169.49643 288.39254,168.77348 284.41628,167.68904 C 280.44002,166.24313 276.46376,164.07425 273.21046,161.5439 C 269.95714,158.65208 267.4268,155.39877 265.61941,151.78397 C 263.81201,147.80773 262.72758,143.1085 262.72758,138.40928 C 262.72758,132.98711 263.81201,127.9264 266.34236,123.58866 C 268.14976,119.61241 271.04158,115.99761 274.65637,113.46728 C 277.90967,110.93692 281.52446,109.12954 285.50072,108.0451 z M 290.56141,122.86571 C 287.30811,124.31163 285.50072,126.84198 284.41628,130.45676 L 308.63533,130.45676 C 308.27386,127.20345 306.82794,125.03458 304.2976,123.22719 C 302.49019,121.78127 299.95986,121.05832 297.06803,121.4198 C 294.53767,121.05832 292.36881,121.78127 290.56141,122.86571 z M 122.47396,85.994913 L 100.0623,85.994913 L 100.0623,102.9838 L 122.47396,102.9838 L 122.47396,85.994913 z M 151.75371,122.50424 C 149.94631,123.58866 148.86188,125.39606 148.5004,127.56493 L 148.5004,167.68904 L 126.45022,168.05051 L 126.8117,107.68363 L 147.05449,107.68363 L 147.05449,111.2984 L 151.39223,109.12954 L 157.53736,107.68363 C 162.23658,106.59919 166.9358,106.59919 170.91206,107.32214 C 175.61128,108.40658 179.58755,110.21396 182.47937,113.46728 C 185.73268,117.08206 187.17859,122.14275 187.17859,128.28789 L 187.17859,167.68904 L 165.12841,167.68904 L 165.12841,127.9264 C 164.76693,125.39606 164.04397,123.58866 162.59806,122.50424 C 160.79067,121.4198 158.98328,120.69684 157.17588,120.69684 C 155.00701,120.69684 153.19962,121.4198 151.75371,122.50424 z M 99.700816,167.68904 L 122.47396,167.68904 L 122.47396,107.68363 L 99.700816,107.68363 L 99.700816,167.68904 z"
     id="kinder_inder"
     style="fill:#e00810;fill-opacity:1;fill-rule:evenodd;stroke:none" /><path
     d="M 49.093841,111.65988 L 70.782545,86.356388 L 98.97786,86.356388 L 72.589936,118.52798 L 98.254904,167.68904 L 71.505501,167.68904 L 55.600451,138.0478 L 48.732362,146.00033 L 48.732362,167.68904 L 24.513309,167.68904 L 24.513309,68.64395 L 49.093841,68.64395 L 49.093841,111.65988"
     id="kinder_k"
     style="fill:#000000;fill-opacity:1;fill-rule:evenodd;stroke:none" /><path
     d="M 139.82492,92.14005 L 260.92018,59.606988 L 247.54548,9.0000125 L 126.45022,41.533063 L 139.82492,92.14005"
     id="schild"
     style="fill:#0080d0;fill-opacity:1;fill-rule:evenodd;stroke:none" /><path
     d="M 233.44783,35.387938 L 232.00191,29.965762 L 228.02565,31.0502 L 229.47156,36.472375 L 224.77235,37.556813 L 221.15756,24.543588 L 225.85678,23.097675 L 227.30269,28.158362 L 230.91748,27.073938 L 229.83304,22.013238 L 234.53226,20.9288 L 238.14705,33.942025 L 233.44783,35.387938 z M 214.65095,28.881325 C 211.39764,29.604275 210.31321,31.411675 211.03617,33.942025 C 211.39764,35.026463 212.1206,36.1109 213.20504,36.83385 L 217.1813,36.83385 C 218.26573,36.472375 219.35017,36.1109 220.4346,35.026463 L 221.51904,38.279763 C 220.07313,39.002725 218.62721,39.3642 216.81982,39.725675 C 214.28947,40.448637 211.75912,40.448637 209.95173,39.725675 C 208.14434,39.002725 206.69842,37.556813 205.97547,35.387938 C 205.61399,33.58055 205.97547,31.773162 207.0599,29.965762 C 208.14434,28.158362 210.31321,27.073938 213.56651,26.350975 L 217.90426,25.628025 L 218.26573,28.51985 L 214.65095,28.881325 z M 230.91748,51.654462 C 231.27896,53.100375 231.64043,54.184813 232.36339,54.546288 C 233.08635,55.26925 233.8093,55.630738 234.89374,55.26925 C 235.97817,54.907763 236.70113,54.546288 237.06261,53.46185 C 237.42409,52.377425 237.06261,51.292987 236.70113,50.20855 C 236.33965,48.762638 235.97817,47.6782 235.25522,47.316725 C 234.53226,46.593775 233.8093,46.232288 232.72487,46.593775 C 231.64043,46.95525 231.27896,47.316725 230.91748,48.401163 C 230.556,49.4856 230.556,50.570025 230.91748,51.654462 z M 217.54278,48.401163 L 226.94121,59.968475 L 221.88052,61.0529 L 220.07313,58.522563 L 214.65095,59.968475 L 214.28947,63.221775 L 209.59025,64.306213 L 212.1206,49.847075 L 217.54278,48.401163 z M 218.62721,56.353688 L 215.73538,51.654462 L 215.01243,57.438125 L 218.62721,56.353688 z M 225.85678,53.100375 C 225.13382,50.931512 225.4953,49.124112 226.94121,47.316725 C 228.02565,45.870813 229.83304,44.786375 232.00191,44.063413 C 234.17078,43.70195 236.33965,43.70195 238.14705,44.4249 C 239.95444,45.147863 241.40035,46.593775 241.76183,48.762638 C 242.48479,50.931512 242.1233,52.7389 240.67739,54.546288 C 239.59296,55.9922 237.78557,57.07665 235.6167,57.7996 C 233.44783,58.161075 231.64043,58.161075 229.83304,57.7996 C 227.66417,56.715163 226.21826,55.26925 225.85678,53.100375 z M 196.21555,31.0502 L 198.7459,41.533063 L 204.89103,40.08715 L 205.61399,42.6175 L 194.76964,45.509338 L 191.15485,32.496113 L 196.21555,31.0502 z M 178.14163,36.1109 L 181.75642,49.124112 L 177.41867,50.20855 L 174.88833,40.448637 L 174.52685,40.448637 L 173.44241,51.292987 L 170.55058,52.015938 L 164.04397,42.978988 L 166.57432,53.100375 L 162.23658,54.184813 L 158.98328,41.171588 L 166.21284,39.3642 L 170.91206,46.593775 L 171.27354,37.918288 L 178.14163,36.1109 z M 181.39494,66.475075 L 185.00972,65.390638 L 182.11789,60.691425 L 181.39494,66.475075 z M 171.9965,60.32995 L 168.38171,67.920988 L 175.97276,73.343175 L 170.18911,75.150563 L 164.76693,70.089863 L 166.21284,76.235 L 161.15215,77.319425 L 157.89884,64.306213 L 162.59806,62.8603 L 164.04397,68.282475 L 166.57432,61.775862 L 171.9965,60.32995 z M 185.73268,48.039688 L 182.11789,35.026463 L 187.17859,33.58055 L 190.79337,46.593775 L 185.73268,48.039688 z M 197.66146,59.245513 L 200.19181,53.100375 L 205.61399,51.292987 L 201.9992,58.884038 L 209.59025,64.667688 L 203.8066,66.1136 L 198.38442,61.0529 L 198.02294,61.0529 L 199.83033,67.198038 L 194.76964,68.282475 L 191.51633,55.26925 L 196.21555,53.823338 L 197.66146,59.245513 z M 183.92529,57.438125 L 193.32372,69.005438 L 188.26303,70.089863 L 186.45564,67.559525 L 181.03346,69.005438 L 180.67198,72.258737 L 175.97276,73.343175 L 178.50311,58.884038 L 183.92529,57.438125 z M 150.66927,52.7389 L 151.75371,56.353688 L 148.5004,57.07665 L 147.41597,53.46185 L 142.71675,54.907763 L 141.99379,52.377425 L 147.05449,51.292987 L 145.97005,47.6782 L 149.22336,46.95525 L 150.30779,50.570025 L 155.00701,49.124112 L 155.72997,51.292987 L 150.66927,52.7389 z M 147.77745,73.70465 L 154.28406,71.897263 L 155.00701,74.4276 L 148.5004,76.235 L 147.77745,73.70465"
     id="schildtext"
     style="fill:#ffffff;fill-opacity:1;fill-rule:evenodd;stroke:none" /></svg>