<?xml version="1.0" encoding="UTF-8" standalone="no"?>
<!-- Created with Inkscape (http://www.inkscape.org/) -->

<svg
   xmlns:dc="http://purl.org/dc/elements/1.1/"
   xmlns:cc="http://creativecommons.org/ns#"
   xmlns:rdf="http://www.w3.org/1999/02/22-rdf-syntax-ns#"
   xmlns:svg="http://www.w3.org/2000/svg"
   xmlns="http://www.w3.org/2000/svg"
   xmlns:sodipodi="http://sodipodi.sourceforge.net/DTD/sodipodi-0.dtd"
   xmlns:inkscape="http://www.inkscape.org/namespaces/inkscape"
   width="109.07869mm"
   height="15.668017mm"
   viewBox="0 0 386.49929 55.516597"
   id="svg2"
   version="1.1"
   inkscape:version="0.91 r13725"
   sodipodi:docname="SEUR logo.svg">
  <title
     id="title4199">SEUR logo</title>
  <defs
     id="defs4" />
  <sodipodi:namedview
     id="base"
     pagecolor="#ffffff"
     bordercolor="#666666"
     borderopacity="1.0"
     inkscape:pageopacity="0.0"
     inkscape:pageshadow="2"
     inkscape:zoom="1.4142136"
     inkscape:cx="240.89618"
     inkscape:cy="38.552918"
     inkscape:document-units="px"
     inkscape:current-layer="layer1"
     showgrid="false"
     fit-margin-top="0"
     fit-margin-left="0"
     fit-margin-right="0"
     fit-margin-bottom="0"
     inkscape:window-width="1366"
     inkscape:window-height="705"
     inkscape:window-x="-8"
     inkscape:window-y="-8"
     inkscape:window-maximized="1" />
  <metadata
     id="metadata7">
    <rdf:RDF>
      <cc:Work
         rdf:about="">
        <dc:format>image/svg+xml</dc:format>
        <dc:type
           rdf:resource="http://purl.org/dc/dcmitype/StillImage" />
        <dc:title>SEUR logo</dc:title>
        <cc:license
           rdf:resource="http://creativecommons.org/licenses/by-sa/3.0/" />
        <dc:date>16/11/2016</dc:date>
        <dc:creator>
          <cc:Agent>
            <dc:title>SEUR</dc:title>
          </cc:Agent>
        </dc:creator>
        <dc:publisher>
          <cc:Agent>
            <dc:title>CMetalCore</dc:title>
          </cc:Agent>
        </dc:publisher>
      </cc:Work>
      <cc:License
         rdf:about="http://creativecommons.org/licenses/by-sa/3.0/">
        <cc:permits
           rdf:resource="http://creativecommons.org/ns#Reproduction" />
        <cc:permits
           rdf:resource="http://creativecommons.org/ns#Distribution" />
        <cc:requires
           rdf:resource="http://creativecommons.org/ns#Notice" />
        <cc:requires
           rdf:resource="http://creativecommons.org/ns#Attribution" />
        <cc:permits
           rdf:resource="http://creativecommons.org/ns#DerivativeWorks" />
        <cc:requires
           rdf:resource="http://creativecommons.org/ns#ShareAlike" />
      </cc:License>
    </rdf:RDF>
  </metadata>
  <g
     inkscape:label="Capa 1"
     inkscape:groupmode="layer"
     id="layer1"
     transform="translate(-66.369901,-103.44071)">
    <g
       id="g4185"
       transform="translate(4.2426407,-138.59293)">
      <g
         id="g4193"
         transform="matrix(0.4922931,0,0,0.4922931,76.744843,-167.96369)">
        <path
           inkscape:connector-curvature="0"
           id="path4173"
           d="m -29.392779,942.31864 c -0.198571,-0.0662 -0.300065,-17.99305 -0.300065,-52.99976 l 0,-52.89951 187.949994,0 187.95,0 0,53.11146 0,53.11147 -187.64993,-0.11176 c -103.207464,-0.0611 -187.784963,-0.15677 -187.949999,-0.2119 z"
           style="fill:#bdd1ec;fill-opacity:1" />
        <path
           inkscape:connector-curvature="0"
           id="path4165"
           style="fill:#e95128;fill-opacity:1"
           d="m 714.95598,880.93772 c 5.64792,-2.01857 8.35116,-5.55281 8.35116,-10.91835 0,-5.26419 -2.17521,-7.81936 -7.8,-9.16248 -1.86327,-0.44493 -4.01601,-0.55997 -12.525,-0.66932 l -10.275,-0.13205 0,11.00372 0,11.00373 9.825,-0.0982 9.825,-0.0982 2.59884,-0.92882 z m -53.54616,61.18438 c -0.11148,-0.1115 -0.20268,-23.9458 -0.20268,-52.96505 l 0,-52.76233 33.075,0.10727 c 32.5962,0.10572 33.11817,0.11667 36.05796,0.75699 7.94955,1.7315 13.22679,4.3953 17.45346,8.80998 4.80498,5.01874 6.71466,10.35676 6.71238,18.76277 -0.003,10.33526 -2.46021,17.33503 -7.89981,22.5021 -2.48331,2.35891 -4.56252,3.64285 -7.92024,4.89083 -1.46163,0.54326 -2.04504,0.87097 -1.56678,0.88013 1.47789,0.0283 4.3665,0.93449 6.84183,2.14637 4.10922,2.01182 6.96519,5.41364 8.26764,9.84786 0.42705,1.4539 3.17856,32.65958 3.17856,36.04898 l 0,1.1714 -16.2,0 -16.2,0 -0.006,-3.975 c -0.0114,-7.9236 -0.5754,-20.5726 -1.01046,-22.6592 -1.1823,-5.67037 -4.58832,-9.03788 -10.7145,-10.59341 -2.15739,-0.54779 -3.67209,-0.66141 -10.54212,-0.79078 l -8.02275,-0.15107 -0.0772,19.00976 -0.0773,19.0097 -15.47232,0.078 c -8.5098,0.043 -15.56355,-0.014 -15.675,-0.125 z m -186.50268,-52.75272 0,-52.95001 39.3,0 39.3,0 0,12.9 0,12.9 -23.7,0 -23.7,0 0,7.65 0,7.65 22.5,0 22.5,0 0,11.85001 0,11.85 -22.5,0 -22.5,0 0,7.65 0,7.65002 24.3,0 24.3,0 0,12.9 0,12.9 -39.9,0 -39.9,0 0,-52.95002 z m 122.55,54.90722 c -21.94062,-2.5286 -33.71967,-12.5324 -37.41576,-31.77646 -0.62694,-3.26422 -0.64194,-4.05746 -0.75039,-39.70577 l -0.11064,-36.375 15.60045,0 15.60045,0 0.10611,34.575 c 0.0971,31.64273 0.1506,34.76583 0.63114,36.82501 1.46511,6.27822 4.66785,9.74712 10.45062,11.31892 2.71395,0.7377 9.61944,0.7228 12.08802,-0.026 5.5698,-1.6897 8.49855,-4.9307 9.9336,-10.99282 0.49077,-2.07323 0.54078,-4.97823 0.6363,-36.97501 l 0.10368,-34.725 15.58821,0 15.58821,0 0,34.46822 c 0,21.79109 -0.11532,35.61086 -0.31356,37.575 -0.69057,6.84221 -2.67306,13.35641 -5.55468,18.25181 -1.8126,3.0794 -6.18228,7.7443 -9.20919,9.8314 -5.4834,3.7809 -12.06033,6.15 -20.68149,7.4499 -4.36758,0.6585 -17.57133,0.8249 -22.29108,0.2809 z m -186.01116,0.7426 c -12.21656,-1.8505 -21.28205,-5.8907 -27.92888,-12.4471 -4.57656,-4.5143 -7.33869,-9.4 -8.94813,-15.8278 -0.70161,-2.8021 -1.45479,-9.31326 -1.14516,-9.89992 0.0653,-0.12375 7.57395,-0.225 16.68585,-0.225 l 16.5671,0 0.35145,3.30689 c 0.69825,6.56963 2.97783,9.27353 9.22893,10.94663 2.87361,0.7691 9.39093,0.9344 12.44463,0.3156 6.32694,-1.282 9.30717,-4.2139 9.30384,-9.15303 0,-1.81661 -0.13518,-2.48683 -0.6753,-3.37897 -1.73097,-2.85917 -3.41679,-3.49636 -25.12317,-9.49587 -15.74867,-4.35284 -22.33547,-7.2373 -27.83804,-12.19076 -2.99535,-2.69643 -5.62866,-7.09989 -6.70209,-11.20744 -1.2063,-4.61584 -1.04397,-12.03191 0.37725,-17.23509 0.79143,-2.89754 3.17076,-7.71533 4.99194,-10.10797 6.31035,-8.29037 16.90002,-13.62157 30.36308,-15.28576 3.21798,-0.39778 13.707,-0.40371 17.25786,-0.01 21.0645,2.33701 33.62388,12.13693 36.56775,28.53332 0.2481,1.38171 0.49182,3.3897 0.54165,4.4622 l 0.0906,1.95 -16.05,0 -16.05,0 -0.18579,-1.72909 c -0.40263,-3.74666 -1.98564,-5.8607 -5.78658,-7.72765 -2.84499,-1.3974 -5.68494,-1.87846 -10.07763,-1.70706 -7.26606,0.28351 -10.29384,2.33727 -10.30725,6.99146 -0.007,2.28004 0.93162,4.03543 2.9199,5.4633 2.99379,2.14999 6.80247,3.30433 18.9687,5.74909 18.65976,3.74962 27.66015,7.36756 33.8949,13.62491 5.05611,5.07448 7.32375,11.21594 7.32375,19.83505 0,13.83726 -6.43311,24.19746 -18.98391,30.57286 -5.74365,2.9176 -13.45614,5.061 -21.66639,6.0214 -5.49021,0.6423 -15.69399,0.57 -20.41086,-0.1444 z" />
        <rect
           style="opacity:1;fill:#6d9ad3;fill-opacity:1;fill-rule:nonzero;stroke:none;stroke-width:1;stroke-linecap:butt;stroke-linejoin:miter;stroke-miterlimit:4;stroke-dasharray:none;stroke-opacity:1"
           id="rect4181"
           width="313.34232"
           height="105.94464"
           x="32.861546"
           y="836.42078" />
        <rect
           y="836.42078"
           x="126.72997"
           height="105.94464"
           width="219.47389"
           id="rect4183"
           style="opacity:1;fill:#1c64b0;fill-opacity:1;fill-rule:nonzero;stroke:none;stroke-width:1;stroke-linecap:butt;stroke-linejoin:miter;stroke-miterlimit:4;stroke-dasharray:none;stroke-opacity:1" />
      </g>
    </g>
  </g>
</svg>
